<svg width="271" height="238" viewBox="0 0 271 238" fill="none" xmlns="http://www.w3.org/2000/svg">
<rect width="271" height="238" rx="90" fill="#F5F5F5"/>
<path d="M35 52C35 43.7157 41.7157 37 50 37H122C130.284 37 137 43.7157 137 52V66C137 74.2843 130.284 81 122 81H35V52Z" fill="#1A252F"/>
<path d="M149 154C149 145.716 155.716 139 164 139H177C188.046 139 197 147.954 197 159V197H164C155.716 197 149 190.284 149 182V154Z" fill="#1A252F"/>
<path d="M35 110H121C129.284 110 136 116.716 136 125V139C136 147.284 129.284 154 121 154H35V110Z" fill="#1A252F"/>
<path d="M150 52C150 43.7157 156.716 37 165 37H221C229.284 37 236 43.7157 236 52V81H165C156.716 81 150 74.2843 150 66V52Z" fill="#1A252F"/>
<path d="M35 81H77V182C77 190.284 70.2843 197 62 197H50C41.7157 197 35 190.284 35 182V81Z" fill="#1A252F"/>
<rect x="77" y="81" width="42" height="36" fill="#1A252F"/>
<path d="M77 86C77 83.2386 79.2386 81 82 81H119V110H82C79.2386 110 77 107.761 77 105V86Z" fill="#F5F5F5"/>
<path d="M77 153H119V170H77V153Z" fill="#1A252F"/>
<path d="M77 159C77 156.239 79.2386 154 82 154H119V190H82C79.2386 190 77 187.761 77 185V159Z" fill="#F5F5F5"/>
<path d="M152 86C152 83.2386 154.239 81 157 81H194V117H157C154.239 117 152 114.761 152 112V86Z" fill="#1A252F"/>
<rect x="152" y="81" width="42" height="36" rx="5" fill="#F5F5F5"/>
<rect x="152" y="99" width="42" height="36" fill="#F5F5F5"/>
<rect x="77" y="183" width="42" height="36" fill="#F5F5F5"/>
<path d="M194 81H236V182C236 190.284 229.284 197 221 197H194V81Z" fill="#1A252F"/>
</svg>
